<svg xmlns="http://www.w3.org/2000/svg" version="1.1" width="217px" height="592px" style="shape-rendering:geometricPrecision; text-rendering:geometricPrecision; image-rendering:optimizeQuality; fill-rule:evenodd; clip-rule:evenodd" xmlns:xlink="http://www.w3.org/1999/xlink">
<g><path style="opacity:1" fill="#fefefe" d="M -0.5,-0.5 C 71.8333,-0.5 144.167,-0.5 216.5,-0.5C 216.5,196.833 216.5,394.167 216.5,591.5C 144.167,591.5 71.8333,591.5 -0.5,591.5C -0.5,394.167 -0.5,196.833 -0.5,-0.5 Z"/></g>
<g><path style="opacity:1" fill="#ecfcfc" d="M 155.5,15.5 C 157.218,17.9262 157.718,20.5929 157,23.5C 156.692,22.6919 156.192,22.0253 155.5,21.5C 155.031,25.1122 153.364,27.9456 150.5,30C 150.833,30.3333 151.167,30.6667 151.5,31C 150.1,32.8557 148.767,34.689 147.5,36.5C 147.5,35.5 147.5,34.5 147.5,33.5C 147.5,32.8333 147.5,32.1667 147.5,31.5C 149.624,25.919 152.29,20.5857 155.5,15.5 Z"/></g>
<g><path style="opacity:1" fill="#8bbcb8" d="M 155.5,15.5 C 152.29,20.5857 149.624,25.919 147.5,31.5C 146.833,31.5 146.167,31.5 145.5,31.5C 148.987,24.5266 152.487,17.5266 156,10.5C 156.384,12.1966 156.218,13.8632 155.5,15.5 Z"/></g>
<g><path style="opacity:1" fill="#c3f6f5" d="M 147.5,33.5 C 147.5,34.5 147.5,35.5 147.5,36.5C 146.611,40.4311 145.278,44.0977 143.5,47.5C 144.259,42.5695 145.592,37.9029 147.5,33.5 Z"/></g>
<g><path style="opacity:1" fill="#5ab3bc" d="M 145.5,31.5 C 146.167,31.5 146.833,31.5 147.5,31.5C 147.5,32.1667 147.5,32.8333 147.5,33.5C 145.592,37.9029 144.259,42.5695 143.5,47.5C 141.989,50.5443 141.322,53.8776 141.5,57.5C 140.566,58.5676 140.232,59.901 140.5,61.5C 139.819,59.8415 138.985,58.1749 138,56.5C 135.931,61.7065 134.265,67.0399 133,72.5C 132.617,73.056 132.117,73.3893 131.5,73.5C 131.5,73.1667 131.5,72.8333 131.5,72.5C 131.5,71.5 131.5,70.5 131.5,69.5C 133.33,63.2011 135.33,56.8678 137.5,50.5C 139.891,44.0515 142.558,37.7181 145.5,31.5 Z"/></g>
<g><path style="opacity:1" fill="#e2fafc" d="M 137.5,50.5 C 135.33,56.8678 133.33,63.2011 131.5,69.5C 131.335,66.1501 131.502,62.8168 132,59.5C 133.562,57.0427 134.562,54.376 135,51.5C 135.671,50.7476 136.504,50.4142 137.5,50.5 Z"/></g>
<g><path style="opacity:1" fill="#e3fdfd" d="M 143.5,47.5 C 142.039,66.1347 141.372,84.8014 141.5,103.5C 140.367,88.3274 140.367,72.9941 141.5,57.5C 141.322,53.8776 141.989,50.5443 143.5,47.5 Z"/></g>
<g><path style="opacity:1" fill="#c3f7fa" d="M 141.5,57.5 C 140.367,72.9941 140.367,88.3274 141.5,103.5C 141.5,105.5 141.5,107.5 141.5,109.5C 140.71,108.391 140.21,107.058 140,105.5C 139.2,90.7887 139.367,76.122 140.5,61.5C 140.232,59.901 140.566,58.5676 141.5,57.5 Z"/></g>
<g><path style="opacity:1" fill="#46b9cb" d="M 140.5,61.5 C 139.367,76.122 139.2,90.7887 140,105.5C 140.21,107.058 140.71,108.391 141.5,109.5C 141.5,110.167 141.5,110.833 141.5,111.5C 141.5,112.5 141.5,113.5 141.5,114.5C 140.833,114.5 140.5,114.833 140.5,115.5C 139.894,112.833 139.061,110.166 138,107.5C 137.5,96.8385 137.333,86.1719 137.5,75.5C 136.5,75.5 135.5,75.5 134.5,75.5C 135.368,79.8076 135.534,84.141 135,88.5C 133.186,95.7857 131.686,103.119 130.5,110.5C 131.115,121.663 132.448,132.663 134.5,143.5C 133.702,140.829 133.035,137.996 132.5,135C 132.164,133.97 131.497,133.47 130.5,133.5C 130.5,131.833 130.5,130.167 130.5,128.5C 129.14,110.806 129.473,93.1389 131.5,75.5C 131.5,74.8333 131.5,74.1667 131.5,73.5C 132.117,73.3893 132.617,73.056 133,72.5C 134.265,67.0399 135.931,61.7065 138,56.5C 138.985,58.1749 139.819,59.8415 140.5,61.5 Z"/></g>
<g><path style="opacity:1" fill="#61a5b1" d="M 131.5,75.5 C 129.473,93.1389 129.14,110.806 130.5,128.5C 128.969,120.726 128.302,112.726 128.5,104.5C 128.067,94.5376 129.067,84.8709 131.5,75.5 Z"/></g>
<g><path style="opacity:1" fill="#d3eef3" d="M 131.5,72.5 C 131.5,72.8333 131.5,73.1667 131.5,73.5C 131.5,74.1667 131.5,74.8333 131.5,75.5C 129.067,84.8709 128.067,94.5376 128.5,104.5C 128.302,112.726 128.969,120.726 130.5,128.5C 130.5,130.167 130.5,131.833 130.5,133.5C 131.657,138.464 132.657,143.464 133.5,148.5C 133.573,150.027 132.906,151.027 131.5,151.5C 131.677,149.019 130.677,147.186 128.5,146C 129.167,145.667 129.833,145.333 130.5,145C 126.758,121.283 126.592,97.4494 130,73.5C 130.383,72.944 130.883,72.6107 131.5,72.5 Z"/></g>
<g><path style="opacity:1" fill="#e8fbfc" d="M 141.5,111.5 C 142.669,115.419 144.503,119.085 147,122.5C 147.37,125.338 147.203,128.171 146.5,131C 147.956,135.02 148.622,139.187 148.5,143.5C 145.405,134.118 143.072,124.451 141.5,114.5C 141.5,113.5 141.5,112.5 141.5,111.5 Z"/></g>
<g><path style="opacity:1" fill="#38bad2" d="M 140.5,115.5 C 140.338,121.555 140.838,127.555 142,133.5C 142.414,133.957 142.914,134.291 143.5,134.5C 144.565,138.784 145.398,143.117 146,147.5C 146.847,151.239 148.347,154.573 150.5,157.5C 150.461,158.583 150.127,159.583 149.5,160.5C 151.582,166.653 152.915,172.987 153.5,179.5C 152.5,179.5 151.5,179.5 150.5,179.5C 150.495,183.534 150.162,187.534 149.5,191.5C 148.5,191.5 147.5,191.5 146.5,191.5C 146.5,191.167 146.5,190.833 146.5,190.5C 147.139,189.903 147.472,189.07 147.5,188C 144.048,177.981 141.215,167.814 139,157.5C 138.722,158.416 138.222,159.082 137.5,159.5C 136.929,154.075 135.929,148.742 134.5,143.5C 132.448,132.663 131.115,121.663 130.5,110.5C 131.686,103.119 133.186,95.7857 135,88.5C 135.534,84.141 135.368,79.8076 134.5,75.5C 135.5,75.5 136.5,75.5 137.5,75.5C 137.333,86.1719 137.5,96.8385 138,107.5C 139.061,110.166 139.894,112.833 140.5,115.5 Z"/></g>
<g><path style="opacity:1" fill="#52b6c3" d="M 141.5,114.5 C 143.072,124.451 145.405,134.118 148.5,143.5C 149.19,148.257 150.19,152.924 151.5,157.5C 151.167,157.5 150.833,157.5 150.5,157.5C 148.347,154.573 146.847,151.239 146,147.5C 145.398,143.117 144.565,138.784 143.5,134.5C 142.914,134.291 142.414,133.957 142,133.5C 140.838,127.555 140.338,121.555 140.5,115.5C 140.5,114.833 140.833,114.5 141.5,114.5 Z"/></g>
<g><path style="opacity:1" fill="#e0fbfd" d="M 148.5,143.5 C 152.192,150.262 154.192,157.595 154.5,165.5C 153.251,162.913 152.251,160.246 151.5,157.5C 150.19,152.924 149.19,148.257 148.5,143.5 Z"/></g>
<g><path style="opacity:1" fill="#66aec3" d="M 130.5,133.5 C 131.497,133.47 132.164,133.97 132.5,135C 133.035,137.996 133.702,140.829 134.5,143.5C 135.929,148.742 136.929,154.075 137.5,159.5C 136.203,157.629 135.203,155.629 134.5,153.5C 134.5,152.833 134.5,152.167 134.5,151.5C 134.737,150.209 134.404,149.209 133.5,148.5C 132.657,143.464 131.657,138.464 130.5,133.5 Z"/></g>
<g><path style="opacity:1" fill="#d3d5e6" d="M 122.5,154.5 C 119.851,156.109 116.851,156.943 113.5,157C 104.173,157.5 94.8393,157.666 85.5,157.5C 83.7085,157.634 82.0418,157.301 80.5,156.5C 72.7989,156.309 65.1322,156.642 57.5,157.5C 58.2625,156.732 59.2625,156.232 60.5,156C 72.6684,155.606 84.8351,155.773 97,156.5C 105.571,156.579 114.071,155.912 122.5,154.5 Z"/></g>
<g><path style="opacity:1" fill="#b0b5d1" d="M 133.5,148.5 C 134.404,149.209 134.737,150.209 134.5,151.5C 129.936,155.048 125.603,158.714 121.5,162.5C 121.67,161.178 121.337,160.011 120.5,159C 118.153,158.666 115.819,158.833 113.5,159.5C 112.377,165.966 111.71,165.966 111.5,159.5C 102.435,160.136 93.7688,159.47 85.5,157.5C 94.8393,157.666 104.173,157.5 113.5,157C 116.851,156.943 119.851,156.109 122.5,154.5C 125.743,154.086 128.743,153.086 131.5,151.5C 132.906,151.027 133.573,150.027 133.5,148.5 Z"/></g>
<g><path style="opacity:1" fill="#abb0da" d="M 80.5,156.5 C 82.0418,157.301 83.7085,157.634 85.5,157.5C 93.7688,159.47 102.435,160.136 111.5,159.5C 111.71,165.966 112.377,165.966 113.5,159.5C 115.819,158.833 118.153,158.666 120.5,159C 121.337,160.011 121.67,161.178 121.5,162.5C 111.767,173.628 102.267,184.961 93,196.5C 92.4209,197.928 92.5876,199.262 93.5,200.5C 92.325,200.281 91.325,200.614 90.5,201.5C 89.0692,204.039 87.4025,206.372 85.5,208.5C 81.9049,209.85 80.5715,212.517 81.5,216.5C 81.1667,217.167 80.8333,217.833 80.5,218.5C 79.596,219.209 79.2627,220.209 79.5,221.5C 79.5,222.167 79.5,222.833 79.5,223.5C 78.0937,223.973 77.427,224.973 77.5,226.5C 77.5,227.5 77.5,228.5 77.5,229.5C 76.6618,229.842 76.3284,230.508 76.5,231.5C 75.5489,232.919 75.2155,234.585 75.5,236.5C 73.2087,236.584 70.8753,236.584 68.5,236.5C 67.6143,237.325 67.281,238.325 67.5,239.5C 69.1439,239.286 70.6439,239.62 72,240.5C 72.8184,243.227 72.6517,245.894 71.5,248.5C 69.8693,250.059 69.036,252.059 69,254.5C 67.1862,253.24 65.3529,253.24 63.5,254.5C 66.0485,255.284 68.3819,256.451 70.5,258C 68.0995,258.186 65.7662,258.686 63.5,259.5C 63.7093,260.086 64.0426,260.586 64.5,261C 68.1391,261.026 71.4725,261.86 74.5,263.5C 74.5,264.167 74.5,264.833 74.5,265.5C 74.5,267.833 74.5,270.167 74.5,272.5C 75.0461,278.067 74.3794,283.4 72.5,288.5C 74.1517,289.068 75.8184,290.401 77.5,292.5C 78.086,292.291 78.586,291.957 79,291.5C 80.1651,296.161 81.3318,300.827 82.5,305.5C 85.7388,307.149 87.2388,309.816 87,313.5C 89.4611,315.673 91.2944,318.34 92.5,321.5C 90.9693,324.365 88.8026,326.698 86,328.5C 84.5936,327.586 83.0936,326.92 81.5,326.5C 80.8592,325.518 80.1925,324.518 79.5,323.5C 75.5411,322.34 71.5411,322.173 67.5,323C 60.4809,326.339 53.1476,328.839 45.5,330.5C 38.7618,332.575 32.4284,331.742 26.5,328C 24.9674,323.46 23.6341,318.96 22.5,314.5C 22.5,314.167 22.5,313.833 22.5,313.5C 20.8182,308.072 19.9848,302.405 20,296.5C 17.9471,295.733 16.4471,294.4 15.5,292.5C 16.6303,290.002 16.6303,287.668 15.5,285.5C 13.6263,283.187 11.6263,280.854 9.5,278.5C 9.03876,276.45 8.37209,274.45 7.5,272.5C 10.4511,271.047 12.9511,269.047 15,266.5C 18.6855,261.796 21.3522,256.462 23,250.5C 22.3333,240.5 21.6667,230.5 21,220.5C 22.1256,216.251 22.7923,211.918 23,207.5C 28.4654,198.41 31.4654,188.41 32,177.5C 32.6667,176.167 33.3333,176.167 34,177.5C 37.5861,173.261 41.0861,169.094 44.5,165C 47.1667,164.333 49.8333,163.667 52.5,163C 53.3567,162.311 54.0233,161.478 54.5,160.5C 63.2191,158.538 71.8857,157.205 80.5,156.5 Z"/></g>
<g><path style="opacity:1" fill="#fcfdfd" d="M 134.5,151.5 C 134.5,152.167 134.5,152.833 134.5,153.5C 134.564,157.22 135.064,160.886 136,164.5C 136.236,166.119 137.069,167.119 138.5,167.5C 139.11,168.391 139.443,169.391 139.5,170.5C 139.335,174.182 139.501,177.848 140,181.5C 140.374,183.867 141.541,185.7 143.5,187C 145.178,194.161 147.512,200.994 150.5,207.5C 151.434,208.568 151.768,209.901 151.5,211.5C 152.514,216.395 152.514,221.229 151.5,226C 153.41,228.397 155.077,230.897 156.5,233.5C 156.5,234.167 156.5,234.833 156.5,235.5C 157.068,244.823 157.401,254.156 157.5,263.5C 129.833,263.5 102.167,263.5 74.5,263.5C 74.5,259.833 74.5,256.167 74.5,252.5C 91.5106,252.419 108.511,252.753 125.5,253.5C 125.5,249.5 125.5,245.5 125.5,241.5C 108.833,241.5 92.1667,241.5 75.5,241.5C 75.5,239.833 75.5,238.167 75.5,236.5C 75.2155,234.585 75.5489,232.919 76.5,231.5C 83.933,230.864 91.2664,230.198 98.5,229.5C 99.4767,226.713 99.81,223.713 99.5,220.5C 92.7453,221.123 86.412,220.456 80.5,218.5C 80.8333,217.833 81.1667,217.167 81.5,216.5C 82.639,213.566 84.3057,210.9 86.5,208.5C 88.8333,208.5 91.1667,208.5 93.5,208.5C 93.5,205.833 93.5,203.167 93.5,200.5C 92.5876,199.262 92.4209,197.928 93,196.5C 102.267,184.961 111.767,173.628 121.5,162.5C 125.603,158.714 129.936,155.048 134.5,151.5 Z"/></g>
<g><path style="opacity:1" fill="#d0f4f7" d="M 134.5,153.5 C 135.203,155.629 136.203,157.629 137.5,159.5C 137.833,162.167 138.167,164.833 138.5,167.5C 137.069,167.119 136.236,166.119 136,164.5C 135.064,160.886 134.564,157.22 134.5,153.5 Z"/></g>
<g><path style="opacity:1" fill="#b0b3cf" d="M 80.5,156.5 C 71.8857,157.205 63.2191,158.538 54.5,160.5C 54.0233,161.478 53.3567,162.311 52.5,163C 49.8333,163.667 47.1667,164.333 44.5,165C 41.0861,169.094 37.5861,173.261 34,177.5C 33.3333,176.167 32.6667,176.167 32,177.5C 31.4654,188.41 28.4654,198.41 23,207.5C 22.7923,211.918 22.1256,216.251 21,220.5C 21.6667,230.5 22.3333,240.5 23,250.5C 21.3522,256.462 18.6855,261.796 15,266.5C 12.9511,269.047 10.4511,271.047 7.5,272.5C 8.37209,274.45 9.03876,276.45 9.5,278.5C 7.31709,277.15 5.65042,275.316 4.5,273C 6.92081,269.573 9.75414,266.406 13,263.5C 15.3973,258.373 18.064,253.373 21,248.5C 21.6667,245.5 21.6667,242.5 21,239.5C 16.8189,228.627 16.4856,217.627 20,206.5C 21.6078,203.228 23.6078,200.228 26,197.5C 26.3567,175.995 36.8567,162.662 57.5,157.5C 65.1322,156.642 72.7989,156.309 80.5,156.5 Z"/></g>
<g><path style="opacity:1" fill="#52b2bf" d="M 146.5,190.5 C 144.165,183.822 141.832,177.155 139.5,170.5C 139.443,169.391 139.11,168.391 138.5,167.5C 138.167,164.833 137.833,162.167 137.5,159.5C 138.222,159.082 138.722,158.416 139,157.5C 141.215,167.814 144.048,177.981 147.5,188C 147.472,189.07 147.139,189.903 146.5,190.5 Z"/></g>
<g><path style="opacity:1" fill="#e1f9fb" d="M 159.5,184.5 C 160.5,184.5 161.5,184.5 162.5,184.5C 162.069,187.854 163.069,190.687 165.5,193C 164.521,195.437 164.854,197.771 166.5,200C 166.281,203.682 166.281,207.516 166.5,211.5C 164.281,202.567 161.947,193.567 159.5,184.5 Z"/></g>
<g><path style="opacity:1" fill="#d1f7fa" d="M 139.5,170.5 C 141.832,177.155 144.165,183.822 146.5,190.5C 146.5,190.833 146.5,191.167 146.5,191.5C 148.039,196.784 149.373,202.118 150.5,207.5C 147.512,200.994 145.178,194.161 143.5,187C 141.541,185.7 140.374,183.867 140,181.5C 139.501,177.848 139.335,174.182 139.5,170.5 Z"/></g>
<g><path style="opacity:1" fill="#5b9cbd" d="M 93.5,200.5 C 93.5,203.167 93.5,205.833 93.5,208.5C 91.1667,208.5 88.8333,208.5 86.5,208.5C 86.1667,208.5 85.8333,208.5 85.5,208.5C 87.4025,206.372 89.0692,204.039 90.5,201.5C 91.325,200.614 92.325,200.281 93.5,200.5 Z"/></g>
<g><path style="opacity:1" fill="#49b6bd" d="M 146.5,191.5 C 147.5,191.5 148.5,191.5 149.5,191.5C 151.858,203.357 154.525,215.024 157.5,226.5C 157.5,229.5 157.5,232.5 157.5,235.5C 157.167,235.5 156.833,235.5 156.5,235.5C 156.5,234.833 156.5,234.167 156.5,233.5C 155.463,225.902 153.796,218.569 151.5,211.5C 151.768,209.901 151.434,208.568 150.5,207.5C 149.373,202.118 148.039,196.784 146.5,191.5 Z"/></g>
<g><path style="opacity:1" fill="#bac0d3" d="M 85.5,208.5 C 85.8333,208.5 86.1667,208.5 86.5,208.5C 84.3057,210.9 82.639,213.566 81.5,216.5C 80.5715,212.517 81.9049,209.85 85.5,208.5 Z"/></g>
<g><path style="opacity:1" fill="#40bdca" d="M 150.5,157.5 C 150.833,157.5 151.167,157.5 151.5,157.5C 152.251,160.246 153.251,162.913 154.5,165.5C 156.011,171.877 157.677,178.21 159.5,184.5C 161.947,193.567 164.281,202.567 166.5,211.5C 166.572,215.626 167.239,219.626 168.5,223.5C 167.167,223.5 165.833,223.5 164.5,223.5C 164.719,224.675 164.386,225.675 163.5,226.5C 162.009,225.652 161.342,224.319 161.5,222.5C 161.13,219.524 162.13,218.524 164.5,219.5C 165.641,217.579 165.808,215.579 165,213.5C 163.464,208.184 161.798,202.851 160,197.5C 159.111,198.888 158.611,198.722 158.5,197C 159.247,192.444 158.747,187.944 157,183.5C 156.29,182.027 155.124,181.36 153.5,181.5C 153.665,184.518 153.498,187.518 153,190.5C 151.701,191.09 150.868,192.09 150.5,193.5C 151.764,196.79 152.93,200.124 154,203.5C 155.011,204.337 156.178,204.67 157.5,204.5C 156.678,211.8 156.678,219.134 157.5,226.5C 154.525,215.024 151.858,203.357 149.5,191.5C 150.162,187.534 150.495,183.534 150.5,179.5C 151.5,179.5 152.5,179.5 153.5,179.5C 152.915,172.987 151.582,166.653 149.5,160.5C 150.127,159.583 150.461,158.583 150.5,157.5 Z"/></g>
<g><path style="opacity:1" fill="#cfb0ce" d="M 181.5,204.5 C 185.588,207.741 186.422,211.741 184,216.5C 180.659,218.668 177.159,219.002 173.5,217.5C 169.399,208.811 172.066,204.477 181.5,204.5 Z"/></g>
<g><path style="opacity:1" fill="#f0e0f0" d="M 181.5,204.5 C 183.17,204.751 184.67,205.418 186,206.5C 188.096,218.266 183.929,221.933 173.5,217.5C 177.159,219.002 180.659,218.668 184,216.5C 186.422,211.741 185.588,207.741 181.5,204.5 Z"/></g>
<g><path style="opacity:1" fill="#acecf4" d="M 166.5,211.5 C 168.946,216.421 169.946,221.755 169.5,227.5C 168.566,226.432 168.232,225.099 168.5,223.5C 167.239,219.626 166.572,215.626 166.5,211.5 Z"/></g>
<g><path style="opacity:1" fill="#aad1e5" d="M 80.5,218.5 C 86.412,220.456 92.7453,221.123 99.5,220.5C 99.81,223.713 99.4767,226.713 98.5,229.5C 98.5,227.167 98.5,224.833 98.5,222.5C 92.2111,221.628 85.8778,221.295 79.5,221.5C 79.2627,220.209 79.596,219.209 80.5,218.5 Z"/></g>
<g><path style="opacity:1" fill="#3f97d0" d="M 79.5,223.5 C 85.5,223.5 91.5,223.5 97.5,223.5C 97.7733,225.451 97.1066,226.951 95.5,228C 90.1771,228.499 84.8437,228.666 79.5,228.5C 79.8693,226.007 79.2027,225.34 77.5,226.5C 77.427,224.973 78.0937,223.973 79.5,223.5 Z"/></g>
<g><path style="opacity:1" fill="#d3f6f8" d="M 151.5,211.5 C 153.796,218.569 155.463,225.902 156.5,233.5C 155.077,230.897 153.41,228.397 151.5,226C 152.514,221.229 152.514,216.395 151.5,211.5 Z"/></g>
<g><path style="opacity:1" fill="#4e90b5" d="M 79.5,221.5 C 85.8778,221.295 92.2111,221.628 98.5,222.5C 98.5,224.833 98.5,227.167 98.5,229.5C 91.5,229.5 84.5,229.5 77.5,229.5C 77.5,228.5 77.5,227.5 77.5,226.5C 79.2027,225.34 79.8693,226.007 79.5,228.5C 84.8437,228.666 90.1771,228.499 95.5,228C 97.1066,226.951 97.7733,225.451 97.5,223.5C 91.5,223.5 85.5,223.5 79.5,223.5C 79.5,222.833 79.5,222.167 79.5,221.5 Z"/></g>
<g><path style="opacity:1" fill="#a6d2e8" d="M 77.5,229.5 C 84.5,229.5 91.5,229.5 98.5,229.5C 91.2664,230.198 83.933,230.864 76.5,231.5C 76.3284,230.508 76.6618,229.842 77.5,229.5 Z"/></g>
<g><path style="opacity:1" fill="#dbfafc" d="M 169.5,227.5 C 170.594,228.582 171.927,229.248 173.5,229.5C 179.804,227.438 185.137,228.771 189.5,233.5C 182.921,232.053 176.254,231.387 169.5,231.5C 169.5,230.167 169.5,228.833 169.5,227.5 Z"/></g>
<g><path style="opacity:1" fill="#ccf8fb" d="M 189.5,233.5 C 192.05,234.358 194.55,235.358 197,236.5C 200.15,240.681 202.484,245.347 204,250.5C 204.667,253.167 204.667,255.833 204,258.5C 201.358,263.633 200.858,268.967 202.5,274.5C 200.983,272.538 200.316,270.205 200.5,267.5C 201.189,263.113 202.189,258.78 203.5,254.5C 202.951,251.076 201.618,248.076 199.5,245.5C 199.068,244.29 198.401,243.29 197.5,242.5C 195.518,238.854 192.851,235.854 189.5,233.5 Z"/></g>
<g><path style="opacity:1" fill="#4db4c1" d="M 169.5,231.5 C 176.254,231.387 182.921,232.053 189.5,233.5C 192.851,235.854 195.518,238.854 197.5,242.5C 196.5,242.5 195.5,242.5 194.5,242.5C 194.719,241.325 194.386,240.325 193.5,239.5C 187.897,233.797 181.231,232.131 173.5,234.5C 171.347,234.439 170.014,233.439 169.5,231.5 Z"/></g>
<g><path style="opacity:1" fill="#35bad1" d="M 168.5,223.5 C 168.232,225.099 168.566,226.432 169.5,227.5C 169.5,228.833 169.5,230.167 169.5,231.5C 170.014,233.439 171.347,234.439 173.5,234.5C 181.231,232.131 187.897,233.797 193.5,239.5C 194.386,240.325 194.719,241.325 194.5,242.5C 195.5,242.5 196.5,242.5 197.5,242.5C 198.401,243.29 199.068,244.29 199.5,245.5C 200.958,248.724 200.625,251.724 198.5,254.5C 200.012,255.249 201.012,256.416 201.5,258C 198.267,265.176 197.601,272.676 199.5,280.5C 196.831,291.843 194.164,303.176 191.5,314.5C 192.993,320.183 195.993,325.016 200.5,329C 199.577,331.041 199.244,333.208 199.5,335.5C 196.677,336.217 194.01,337.217 191.5,338.5C 191.5,339.5 191.5,340.5 191.5,341.5C 192.212,344.925 192.212,348.258 191.5,351.5C 186.672,352.948 185.006,355.948 186.5,360.5C 183.447,361.777 180.614,363.444 178,365.5C 176.79,369.634 175.29,373.634 173.5,377.5C 173.5,377.833 173.5,378.167 173.5,378.5C 169.554,379.527 165.554,379.694 161.5,379C 159.347,378.901 157.681,378.067 156.5,376.5C 152.402,374.127 148.068,372.127 143.5,370.5C 143.5,369.5 143.5,368.5 143.5,367.5C 139.977,367.812 138.644,366.479 139.5,363.5C 136.435,360.527 134.102,360.86 132.5,364.5C 131.504,364.586 130.671,364.252 130,363.5C 128.566,360.953 126.9,358.619 125,356.5C 124.506,354.866 124.34,353.199 124.5,351.5C 125.5,351.5 126.5,351.5 127.5,351.5C 128.495,347.836 129.495,344.169 130.5,340.5C 131.721,339.972 132.887,339.305 134,338.5C 136.813,333.059 139.813,327.726 143,322.5C 144.727,319.382 145.561,316.049 145.5,312.5C 147.969,311.393 148.969,309.393 148.5,306.5C 148.5,305.833 148.5,305.167 148.5,304.5C 150.837,302.493 152.171,299.827 152.5,296.5C 153.404,295.791 153.737,294.791 153.5,293.5C 154.447,291.043 155.781,288.709 157.5,286.5C 157.376,285.893 157.043,285.56 156.5,285.5C 156.5,285.167 156.5,284.833 156.5,284.5C 156.5,283.167 156.5,281.833 156.5,280.5C 157.473,278.052 157.806,275.385 157.5,272.5C 159.439,270.063 159.773,267.397 158.5,264.5C 158.5,264.167 158.5,263.833 158.5,263.5C 158.517,254.151 158.183,244.818 157.5,235.5C 157.5,232.5 157.5,229.5 157.5,226.5C 156.678,219.134 156.678,211.8 157.5,204.5C 156.178,204.67 155.011,204.337 154,203.5C 152.93,200.124 151.764,196.79 150.5,193.5C 150.868,192.09 151.701,191.09 153,190.5C 153.498,187.518 153.665,184.518 153.5,181.5C 155.124,181.36 156.29,182.027 157,183.5C 158.747,187.944 159.247,192.444 158.5,197C 158.611,198.722 159.111,198.888 160,197.5C 161.798,202.851 163.464,208.184 165,213.5C 165.808,215.579 165.641,217.579 164.5,219.5C 162.13,218.524 161.13,219.524 161.5,222.5C 161.342,224.319 162.009,225.652 163.5,226.5C 164.386,225.675 164.719,224.675 164.5,223.5C 165.833,223.5 167.167,223.5 168.5,223.5 Z"/></g>
<g><path style="opacity:1" fill="#6398bf" d="M 75.5,242.5 C 87.5,242.5 99.5,242.5 111.5,242.5C 111.5,242.833 111.5,243.167 111.5,243.5C 99.5,243.5 87.5,243.5 75.5,243.5C 75.5,245.833 75.5,248.167 75.5,250.5C 74.6618,250.158 74.3284,249.492 74.5,248.5C 74.2053,246.265 74.5386,244.265 75.5,242.5 Z"/></g>
<g><path style="opacity:1" fill="#82b5cd" d="M 111.5,243.5 C 111.5,243.167 111.5,242.833 111.5,242.5C 115.5,242.5 119.5,242.5 123.5,242.5C 123.768,244.099 123.434,245.432 122.5,246.5C 122.5,245.5 122.5,244.5 122.5,243.5C 118.833,243.5 115.167,243.5 111.5,243.5 Z"/></g>
<g><path style="opacity:1" fill="#3a98d0" d="M 111.5,243.5 C 114.305,244.319 117.305,244.819 120.5,245C 121.833,246.333 121.833,247.667 120.5,249C 117.305,249.181 114.305,249.681 111.5,250.5C 99.5,250.5 87.5,250.5 75.5,250.5C 75.5,248.167 75.5,245.833 75.5,243.5C 87.5,243.5 99.5,243.5 111.5,243.5 Z"/></g>
<g><path style="opacity:1" fill="#4695b8" d="M 111.5,243.5 C 115.167,243.5 118.833,243.5 122.5,243.5C 122.5,244.5 122.5,245.5 122.5,246.5C 122.5,247.833 122.5,249.167 122.5,250.5C 118.833,250.5 115.167,250.5 111.5,250.5C 114.305,249.681 117.305,249.181 120.5,249C 121.833,247.667 121.833,246.333 120.5,245C 117.305,244.819 114.305,244.319 111.5,243.5 Z"/></g>
<g><path style="opacity:1" fill="#84c2e1" d="M 74.5,248.5 C 74.3284,249.492 74.6618,250.158 75.5,250.5C 87.5,250.5 99.5,250.5 111.5,250.5C 115.167,250.5 118.833,250.5 122.5,250.5C 106.675,251.496 90.6754,251.83 74.5,251.5C 73.1667,250.5 73.1667,249.5 74.5,248.5 Z"/></g>
<g><path style="opacity:1" fill="#d9f7fe" d="M 75.5,242.5 C 75.5,242.167 75.5,241.833 75.5,241.5C 92.1667,241.5 108.833,241.5 125.5,241.5C 125.5,245.5 125.5,249.5 125.5,253.5C 108.511,252.753 91.5106,252.419 74.5,252.5C 74.5,252.167 74.5,251.833 74.5,251.5C 90.6754,251.83 106.675,251.496 122.5,250.5C 122.5,249.167 122.5,247.833 122.5,246.5C 123.434,245.432 123.768,244.099 123.5,242.5C 119.5,242.5 115.5,242.5 111.5,242.5C 99.5,242.5 87.5,242.5 75.5,242.5 Z"/></g>
<g><path style="opacity:1" fill="#b6ecf3" d="M 156.5,235.5 C 156.833,235.5 157.167,235.5 157.5,235.5C 158.183,244.818 158.517,254.151 158.5,263.5C 158.167,263.5 157.833,263.5 157.5,263.5C 157.401,254.156 157.068,244.823 156.5,235.5 Z"/></g>
<g><path style="opacity:1" fill="#a9b3d6" d="M 75.5,236.5 C 75.5,238.167 75.5,239.833 75.5,241.5C 75.5,241.833 75.5,242.167 75.5,242.5C 74.5386,244.265 74.2053,246.265 74.5,248.5C 73.1667,249.5 73.1667,250.5 74.5,251.5C 74.5,251.833 74.5,252.167 74.5,252.5C 74.5,256.167 74.5,259.833 74.5,263.5C 71.4725,261.86 68.1391,261.026 64.5,261C 64.0426,260.586 63.7093,260.086 63.5,259.5C 65.7662,258.686 68.0995,258.186 70.5,258C 68.3819,256.451 66.0485,255.284 63.5,254.5C 65.3529,253.24 67.1862,253.24 69,254.5C 69.036,252.059 69.8693,250.059 71.5,248.5C 72.6517,245.894 72.8184,243.227 72,240.5C 70.6439,239.62 69.1439,239.286 67.5,239.5C 67.281,238.325 67.6143,237.325 68.5,236.5C 70.8753,236.584 73.2087,236.584 75.5,236.5 Z"/></g>
<g><path style="opacity:1" fill="#6c95b3" d="M 74.5,263.5 C 102.167,263.5 129.833,263.5 157.5,263.5C 157.833,263.5 158.167,263.5 158.5,263.5C 158.5,263.833 158.5,264.167 158.5,264.5C 130.574,265.491 102.574,265.824 74.5,265.5C 74.5,264.833 74.5,264.167 74.5,263.5 Z"/></g>
<g><path style="opacity:1" fill="#4399cc" d="M 158.5,264.5 C 159.773,267.397 159.439,270.063 157.5,272.5C 130.167,272.5 102.833,272.5 75.5,272.5C 75.1667,272.5 74.8333,272.5 74.5,272.5C 74.5,270.167 74.5,267.833 74.5,265.5C 102.574,265.824 130.574,265.491 158.5,264.5 Z"/></g>
<g><path style="opacity:1" fill="#d3f9fe" d="M 75.5,272.5 C 102.833,272.5 130.167,272.5 157.5,272.5C 157.806,275.385 157.473,278.052 156.5,280.5C 156.5,278.5 156.5,276.5 156.5,274.5C 129.833,274.5 103.167,274.5 76.5,274.5C 75.6618,274.158 75.3284,273.492 75.5,272.5 Z"/></g>
<g><path style="opacity:1" fill="#fcfdfd" d="M 76.5,274.5 C 103.167,274.5 129.833,274.5 156.5,274.5C 156.5,276.5 156.5,278.5 156.5,280.5C 156.5,281.833 156.5,283.167 156.5,284.5C 142.833,284.5 129.167,284.5 115.5,284.5C 115.5,285.5 115.5,286.5 115.5,287.5C 115.5,289.5 115.5,291.5 115.5,293.5C 115.611,294.117 115.944,294.617 116.5,295C 127.828,295.5 139.162,295.667 150.5,295.5C 150.02,298.005 149.02,300.338 147.5,302.5C 142.015,303.167 136.681,303.833 131.5,304.5C 131.5,307.167 131.5,309.833 131.5,312.5C 135.634,313.485 139.968,313.818 144.5,313.5C 143.889,316.721 142.722,319.721 141,322.5C 136.879,328.125 133.379,334.125 130.5,340.5C 127.143,344.535 124.143,348.868 121.5,353.5C 119.187,351.626 116.854,349.626 114.5,347.5C 105.203,335.671 96.37,323.338 88,310.5C 84.8612,302.751 81.5279,295.084 78,287.5C 76.9246,283.23 76.4246,278.897 76.5,274.5 Z"/></g>
<g><path style="opacity:1" fill="#9dc6dd" d="M 156.5,284.5 C 156.5,284.833 156.5,285.167 156.5,285.5C 156.167,285.5 155.833,285.5 155.5,285.5C 141.92,284.88 128.587,285.547 115.5,287.5C 115.5,286.5 115.5,285.5 115.5,284.5C 129.167,284.5 142.833,284.5 156.5,284.5 Z"/></g>
<g><path style="opacity:1" fill="#4f8cb0" d="M 155.5,285.5 C 154.5,286.167 153.5,286.833 152.5,287.5C 149.5,287.5 146.5,287.5 143.5,287.5C 135.344,286.343 127.01,286.177 118.5,287C 117.594,288.699 117.261,290.533 117.5,292.5C 129.345,292.172 141.012,292.505 152.5,293.5C 144.5,293.5 136.5,293.5 128.5,293.5C 124.167,293.5 119.833,293.5 115.5,293.5C 115.5,291.5 115.5,289.5 115.5,287.5C 128.587,285.547 141.92,284.88 155.5,285.5 Z"/></g>
<g><path style="opacity:1" fill="#4699c6" d="M 155.5,285.5 C 155.833,285.5 156.167,285.5 156.5,285.5C 157.043,285.56 157.376,285.893 157.5,286.5C 155.781,288.709 154.447,291.043 153.5,293.5C 153.167,293.5 152.833,293.5 152.5,293.5C 141.012,292.505 129.345,292.172 117.5,292.5C 117.261,290.533 117.594,288.699 118.5,287C 127.01,286.177 135.344,286.343 143.5,287.5C 135.5,287.5 127.5,287.5 119.5,287.5C 119.5,288.833 119.5,290.167 119.5,291.5C 130.833,291.5 142.167,291.5 153.5,291.5C 153.768,289.901 153.434,288.568 152.5,287.5C 153.5,286.833 154.5,286.167 155.5,285.5 Z"/></g>
<g><path style="opacity:1" fill="#3997d0" d="M 143.5,287.5 C 146.5,287.5 149.5,287.5 152.5,287.5C 153.434,288.568 153.768,289.901 153.5,291.5C 142.167,291.5 130.833,291.5 119.5,291.5C 119.5,290.167 119.5,288.833 119.5,287.5C 127.5,287.5 135.5,287.5 143.5,287.5 Z"/></g>
<g><path style="opacity:1" fill="#bae5f9" d="M 128.5,293.5 C 136.5,293.5 144.5,293.5 152.5,293.5C 152.833,293.5 153.167,293.5 153.5,293.5C 153.737,294.791 153.404,295.791 152.5,296.5C 144.719,294.846 136.719,293.846 128.5,293.5 Z"/></g>
<g><path style="opacity:1" fill="#b6b6d1" d="M 15.5,285.5 C 16.6303,287.668 16.6303,290.002 15.5,292.5C 16.4471,294.4 17.9471,295.733 20,296.5C 19.9848,302.405 20.8182,308.072 22.5,313.5C 20.39,312.547 19.2233,310.881 19,308.5C 19.0655,305.422 18.8988,302.422 18.5,299.5C 15.4068,298.798 13.4068,296.964 12.5,294C 13.8863,291.268 14.8863,288.435 15.5,285.5 Z"/></g>
<g><path style="opacity:1" fill="#e2fcfe" d="M 115.5,293.5 C 119.833,293.5 124.167,293.5 128.5,293.5C 136.719,293.846 144.719,294.846 152.5,296.5C 152.171,299.827 150.837,302.493 148.5,304.5C 142.833,304.5 137.167,304.5 131.5,304.5C 136.681,303.833 142.015,303.167 147.5,302.5C 149.02,300.338 150.02,298.005 150.5,295.5C 139.162,295.667 127.828,295.5 116.5,295C 115.944,294.617 115.611,294.117 115.5,293.5 Z"/></g>
<g><path style="opacity:1" fill="#4ab7c4" d="M 199.5,245.5 C 201.618,248.076 202.951,251.076 203.5,254.5C 202.189,258.78 201.189,263.113 200.5,267.5C 200.316,270.205 200.983,272.538 202.5,274.5C 202.5,275.833 202.5,277.167 202.5,278.5C 201.804,289.091 198.97,299.091 194,308.5C 193.833,310 193.667,311.5 193.5,313C 193.569,314.986 194.235,316.486 195.5,317.5C 196.336,321.984 198.669,325.317 202.5,327.5C 202.833,328.167 203.167,328.833 203.5,329.5C 204.807,330.802 204.807,332.135 203.5,333.5C 199.471,336.177 195.471,338.844 191.5,341.5C 191.5,340.5 191.5,339.5 191.5,338.5C 194.01,337.217 196.677,336.217 199.5,335.5C 199.244,333.208 199.577,331.041 200.5,329C 195.993,325.016 192.993,320.183 191.5,314.5C 194.164,303.176 196.831,291.843 199.5,280.5C 197.601,272.676 198.267,265.176 201.5,258C 201.012,256.416 200.012,255.249 198.5,254.5C 200.625,251.724 200.958,248.724 199.5,245.5 Z"/></g>
<g><path style="opacity:1" fill="#b9f3f9" d="M 202.5,278.5 C 203.638,281.304 203.805,284.304 203,287.5C 201.893,291.88 200.726,296.213 199.5,300.5C 196.411,305.584 195.077,311.251 195.5,317.5C 194.235,316.486 193.569,314.986 193.5,313C 193.667,311.5 193.833,310 194,308.5C 198.97,299.091 201.804,289.091 202.5,278.5 Z"/></g>
<g><path style="opacity:1" fill="#5395bd" d="M 131.5,304.5 C 137.167,304.5 142.833,304.5 148.5,304.5C 148.5,305.167 148.5,305.833 148.5,306.5C 143.833,306.5 139.167,306.5 134.5,306.5C 134.5,308.167 134.5,309.833 134.5,311.5C 138.042,311.187 141.375,311.521 144.5,312.5C 140.167,312.5 135.833,312.5 131.5,312.5C 131.5,309.833 131.5,307.167 131.5,304.5 Z"/></g>
<g><path style="opacity:1" fill="#379ad4" d="M 148.5,306.5 C 148.969,309.393 147.969,311.393 145.5,312.5C 145.167,312.5 144.833,312.5 144.5,312.5C 141.375,311.521 138.042,311.187 134.5,311.5C 134.5,309.833 134.5,308.167 134.5,306.5C 139.167,306.5 143.833,306.5 148.5,306.5 Z"/></g>
<g><path style="opacity:1" fill="#ddfafc" d="M 199.5,300.5 C 198.4,305.304 197.4,310.137 196.5,315C 196.443,317.895 197.61,320.062 200,321.5C 199.946,324.191 201.113,326.024 203.5,327C 203.272,327.399 202.938,327.565 202.5,327.5C 198.669,325.317 196.336,321.984 195.5,317.5C 195.077,311.251 196.411,305.584 199.5,300.5 Z"/></g>
<g><path style="opacity:1" fill="#b7b9d1" d="M 22.5,314.5 C 23.6341,318.96 24.9674,323.46 26.5,328C 32.4284,331.742 38.7618,332.575 45.5,330.5C 29.7479,336.791 22.0812,331.457 22.5,314.5 Z"/></g>
<g><path style="opacity:1" fill="#70b6c4" d="M 131.5,312.5 C 135.833,312.5 140.167,312.5 144.5,312.5C 144.833,312.5 145.167,312.5 145.5,312.5C 145.561,316.049 144.727,319.382 143,322.5C 139.813,327.726 136.813,333.059 134,338.5C 132.887,339.305 131.721,339.972 130.5,340.5C 133.379,334.125 136.879,328.125 141,322.5C 142.722,319.721 143.889,316.721 144.5,313.5C 139.968,313.818 135.634,313.485 131.5,312.5 Z"/></g>
<g><path style="opacity:1" fill="#abb1de" d="M 114.5,347.5 C 114.5,348.833 114.5,350.167 114.5,351.5C 115.675,351.281 116.675,351.614 117.5,352.5C 116.976,354.453 115.976,356.12 114.5,357.5C 116.461,358.848 116.628,360.181 115,361.5C 112.564,361.454 110.064,361.121 107.5,360.5C 106.691,358.929 106.357,357.262 106.5,355.5C 110.082,357.161 111.748,355.827 111.5,351.5C 110.5,351.5 109.5,351.5 108.5,351.5C 108.55,349.41 107.55,348.077 105.5,347.5C 104.725,349.843 104.058,352.177 103.5,354.5C 98.5694,351.861 98.236,348.694 102.5,345C 102.291,343.129 101.291,341.962 99.5,341.5C 98.8524,343.149 97.8524,344.482 96.5,345.5C 96.1667,344.667 95.8333,343.833 95.5,343C 95.9335,341.072 96.6002,339.239 97.5,337.5C 97.1667,336.833 96.8333,336.167 96.5,335.5C 95.5713,336.689 95.238,338.022 95.5,339.5C 94.1266,339.657 92.7932,339.49 91.5,339C 90.6699,337.253 89.6699,335.587 88.5,334C 90.6821,330.977 92.6821,327.81 94.5,324.5C 98.9574,329.084 102.124,334.417 104,340.5C 107.125,343.452 110.625,345.785 114.5,347.5 Z"/></g>
<g><path style="opacity:1" fill="#c6fafb" d="M 203.5,329.5 C 205.84,330.572 206.173,332.239 204.5,334.5C 202.493,336.008 200.826,337.842 199.5,340C 196.725,340.006 194.725,341.173 193.5,343.5C 194.992,345.972 195.658,348.639 195.5,351.5C 194.167,351.5 192.833,351.5 191.5,351.5C 192.212,348.258 192.212,344.925 191.5,341.5C 195.471,338.844 199.471,336.177 203.5,333.5C 204.807,332.135 204.807,330.802 203.5,329.5 Z"/></g>
<g><path style="opacity:1" fill="#aeb3d3" d="M 74.5,272.5 C 74.8333,272.5 75.1667,272.5 75.5,272.5C 75.3284,273.492 75.6618,274.158 76.5,274.5C 76.4246,278.897 76.9246,283.23 78,287.5C 81.5279,295.084 84.8612,302.751 88,310.5C 96.37,323.338 105.203,335.671 114.5,347.5C 110.625,345.785 107.125,343.452 104,340.5C 102.124,334.417 98.9574,329.084 94.5,324.5C 92.6821,327.81 90.6821,330.977 88.5,334C 89.6699,335.587 90.6699,337.253 91.5,339C 92.7932,339.49 94.1266,339.657 95.5,339.5C 95.238,338.022 95.5713,336.689 96.5,335.5C 96.8333,336.167 97.1667,336.833 97.5,337.5C 96.6002,339.239 95.9335,341.072 95.5,343C 95.8333,343.833 96.1667,344.667 96.5,345.5C 97.8524,344.482 98.8524,343.149 99.5,341.5C 101.291,341.962 102.291,343.129 102.5,345C 98.236,348.694 98.5694,351.861 103.5,354.5C 105.28,355.99 105.946,357.99 105.5,360.5C 96.3366,350.001 88.3366,338.667 81.5,326.5C 83.0936,326.92 84.5936,327.586 86,328.5C 88.8026,326.698 90.9693,324.365 92.5,321.5C 91.2944,318.34 89.4611,315.673 87,313.5C 87.2388,309.816 85.7388,307.149 82.5,305.5C 81.3318,300.827 80.1651,296.161 79,291.5C 78.586,291.957 78.086,292.291 77.5,292.5C 75.8184,290.401 74.1517,289.068 72.5,288.5C 74.3794,283.4 75.0461,278.067 74.5,272.5 Z"/></g>
<g><path style="opacity:1" fill="#5c98b7" d="M 69.5,344.5 C 84.8694,345.041 90.3694,352.707 86,367.5C 83.471,370.885 80.3044,373.218 76.5,374.5C 73.4816,374.665 70.4816,374.498 67.5,374C 65.6763,373.34 64.343,372.173 63.5,370.5C 75.4003,375.717 83.0669,372.05 86.5,359.5C 86.2809,353.362 83.2809,349.196 77.5,347C 72.6158,346.228 67.9492,346.728 63.5,348.5C 64.8021,346.178 66.8021,344.845 69.5,344.5 Z"/></g>
<g><path style="opacity:1" fill="#60afbe" d="M 130.5,340.5 C 129.495,344.169 128.495,347.836 127.5,351.5C 126.5,351.5 125.5,351.5 124.5,351.5C 124.34,353.199 124.506,354.866 125,356.5C 126.9,358.619 128.566,360.953 130,363.5C 130.671,364.252 131.504,364.586 132.5,364.5C 132.167,365.167 131.833,365.833 131.5,366.5C 128.751,365.026 126.418,363.026 124.5,360.5C 123.833,359.167 122.833,358.167 121.5,357.5C 121.5,356.167 121.5,354.833 121.5,353.5C 124.143,348.868 127.143,344.535 130.5,340.5 Z"/></g>
<g><path style="opacity:1" fill="#bbfbfd" d="M 191.5,351.5 C 190.793,353.134 189.627,354.468 188,355.5C 187.802,357.382 187.302,359.048 186.5,360.5C 185.006,355.948 186.672,352.948 191.5,351.5 Z"/></g>
<g><path style="opacity:1" fill="#abb3da" d="M 114.5,347.5 C 116.854,349.626 119.187,351.626 121.5,353.5C 121.5,354.833 121.5,356.167 121.5,357.5C 119.654,357.222 118.32,357.889 117.5,359.5C 119.134,362.464 121.134,365.131 123.5,367.5C 124.51,369.935 125.343,372.269 126,374.5C 125.667,374.833 125.333,375.167 125,375.5C 123.034,370.579 119.534,367.245 114.5,365.5C 110.764,367.81 110.764,368.477 114.5,367.5C 116.606,370.541 117.94,373.875 118.5,377.5C 119.5,377.5 120.5,377.5 121.5,377.5C 121.5,379.5 121.5,381.5 121.5,383.5C 121.167,383.5 120.833,383.5 120.5,383.5C 120.167,383.5 119.833,383.5 119.5,383.5C 117.935,377.979 114.935,373.312 110.5,369.5C 108.568,366.634 106.901,363.634 105.5,360.5C 105.946,357.99 105.28,355.99 103.5,354.5C 104.058,352.177 104.725,349.843 105.5,347.5C 107.55,348.077 108.55,349.41 108.5,351.5C 109.5,351.5 110.5,351.5 111.5,351.5C 111.748,355.827 110.082,357.161 106.5,355.5C 106.357,357.262 106.691,358.929 107.5,360.5C 110.064,361.121 112.564,361.454 115,361.5C 116.628,360.181 116.461,358.848 114.5,357.5C 115.976,356.12 116.976,354.453 117.5,352.5C 116.675,351.614 115.675,351.281 114.5,351.5C 114.5,350.167 114.5,348.833 114.5,347.5 Z"/></g>
<g><path style="opacity:1" fill="#a2b6db" d="M 124.5,360.5 C 126.418,363.026 128.751,365.026 131.5,366.5C 131.433,367.959 131.766,369.292 132.5,370.5C 131.5,370.5 130.5,370.5 129.5,370.5C 129.5,369.5 129.5,368.5 129.5,367.5C 125.197,367.265 123.53,364.931 124.5,360.5 Z"/></g>
<g><path style="opacity:1" fill="#3b98d0" d="M 63.5,370.5 C 61.3873,367.58 60.3873,364.247 60.5,360.5C 60.5711,356.215 61.5711,352.215 63.5,348.5C 67.9492,346.728 72.6158,346.228 77.5,347C 83.2809,349.196 86.2809,353.362 86.5,359.5C 83.0669,372.05 75.4003,375.717 63.5,370.5 Z"/></g>
<g><path style="opacity:1" fill="#5f91b0" d="M 63.5,348.5 C 61.5711,352.215 60.5711,356.215 60.5,360.5C 60.3873,364.247 61.3873,367.58 63.5,370.5C 59.6295,367.75 57.9628,363.917 58.5,359C 57.9097,354.349 59.5764,350.849 63.5,348.5 Z"/></g>
<g><path style="opacity:1" fill="#dbf5fa" d="M 69.5,344.5 C 76.8408,342.327 83.3408,343.993 89,349.5C 90.4409,357.611 89.2742,365.111 85.5,372C 82.6883,373.549 79.6883,374.382 76.5,374.5C 80.3044,373.218 83.471,370.885 86,367.5C 90.3694,352.707 84.8694,345.041 69.5,344.5 Z"/></g>
<g><path style="opacity:1" fill="#54bdc8" d="M 156.5,376.5 C 153.167,375.833 149.833,375.167 146.5,374.5C 142.524,370.181 137.857,366.847 132.5,364.5C 134.102,360.86 136.435,360.527 139.5,363.5C 138.644,366.479 139.977,367.812 143.5,367.5C 143.5,368.5 143.5,369.5 143.5,370.5C 148.068,372.127 152.402,374.127 156.5,376.5 Z"/></g>
<g><path style="opacity:1" fill="#b8f7f9" d="M 186.5,360.5 C 186.489,362.017 185.823,363.184 184.5,364C 182.481,364.45 180.648,365.283 179,366.5C 178.516,370.45 177.349,374.117 175.5,377.5C 174.833,377.5 174.167,377.5 173.5,377.5C 175.29,373.634 176.79,369.634 178,365.5C 180.614,363.444 183.447,361.777 186.5,360.5 Z"/></g>
<g><path style="opacity:1" fill="#aeafdc" d="M 121.5,357.5 C 122.833,358.167 123.833,359.167 124.5,360.5C 123.53,364.931 125.197,367.265 129.5,367.5C 129.5,368.5 129.5,369.5 129.5,370.5C 130.5,370.5 131.5,370.5 132.5,370.5C 132.833,371.833 133.167,373.167 133.5,374.5C 131.5,374.5 129.5,374.5 127.5,374.5C 128.518,379.749 126.518,382.749 121.5,383.5C 121.5,381.5 121.5,379.5 121.5,377.5C 120.5,377.5 119.5,377.5 118.5,377.5C 117.94,373.875 116.606,370.541 114.5,367.5C 110.764,368.477 110.764,367.81 114.5,365.5C 119.534,367.245 123.034,370.579 125,375.5C 125.333,375.167 125.667,374.833 126,374.5C 125.343,372.269 124.51,369.935 123.5,367.5C 121.134,365.131 119.134,362.464 117.5,359.5C 118.32,357.889 119.654,357.222 121.5,357.5 Z"/></g>
<g><path style="opacity:1" fill="#bdf6fa" d="M 146.5,374.5 C 149.833,375.167 153.167,375.833 156.5,376.5C 157.681,378.067 159.347,378.901 161.5,379C 165.554,379.694 169.554,379.527 173.5,378.5C 173.389,379.117 173.056,379.617 172.5,380C 165.545,381.121 158.879,380.288 152.5,377.5C 150.03,377.346 148.03,376.346 146.5,374.5 Z"/></g>
<g><path style="opacity:1" fill="#e4fdfe" d="M 152.5,377.5 C 158.879,380.288 165.545,381.121 172.5,380C 173.056,379.617 173.389,379.117 173.5,378.5C 173.5,378.167 173.5,377.833 173.5,377.5C 174.167,377.5 174.833,377.5 175.5,377.5C 175.64,379.124 174.973,380.29 173.5,381C 168.167,381.667 162.833,381.667 157.5,381C 155.24,380.451 153.574,379.284 152.5,377.5 Z"/></g>
<g><path style="opacity:1" fill="#3fbace" d="M 110.5,369.5 C 114.935,373.312 117.935,377.979 119.5,383.5C 115.665,390.508 111.331,397.174 106.5,403.5C 103.572,404.591 101.406,406.591 100,409.5C 99.1382,414.225 96.9715,418.225 93.5,421.5C 92.5258,423.743 92.1924,426.076 92.5,428.5C 91.8442,427.378 91.5108,426.045 91.5,424.5C 92.3764,420.537 93.0431,416.537 93.5,412.5C 94.0522,407.991 92.3855,406.324 88.5,407.5C 90.2429,403.016 92.2429,398.683 94.5,394.5C 100.069,386.373 105.402,378.039 110.5,369.5 Z"/></g>
<g><path style="opacity:1" fill="#baf8fb" d="M 119.5,383.5 C 119.833,383.5 120.167,383.5 120.5,383.5C 117.265,390.302 113.765,396.969 110,403.5C 108.729,404.883 107.229,405.883 105.5,406.5C 105.557,405.391 105.89,404.391 106.5,403.5C 111.331,397.174 115.665,390.508 119.5,383.5 Z"/></g>
<g><path style="opacity:1" fill="#b3b7d2" d="M 132.5,370.5 C 150.158,392.086 161.491,416.753 166.5,444.5C 166.5,445.833 166.5,447.167 166.5,448.5C 165.883,448.389 165.383,448.056 165,447.5C 162.463,434.568 159.13,421.901 155,409.5C 151.122,407.289 149.622,403.955 150.5,399.5C 148.833,399.5 147.167,399.5 145.5,399.5C 143.913,396.081 143.247,392.415 143.5,388.5C 142.325,388.719 141.325,388.386 140.5,387.5C 138.504,382.876 136.17,378.542 133.5,374.5C 133.167,373.167 132.833,371.833 132.5,370.5 Z"/></g>
<g><path style="opacity:1" fill="#b2b7ce" d="M 127.5,393.5 C 129.144,393.286 130.644,393.62 132,394.5C 132.067,399.638 134.4,403.305 139,405.5C 140.741,410.08 142.241,414.747 143.5,419.5C 138.207,410.935 132.873,402.268 127.5,393.5 Z"/></g>
<g><path style="opacity:1" fill="#def9fb" d="M 94.5,394.5 C 92.2429,398.683 90.2429,403.016 88.5,407.5C 87.8333,407.5 87.5,407.833 87.5,408.5C 80.2012,422.059 74.8679,436.392 71.5,451.5C 70.6172,445 71.7839,439 75,433.5C 79.2737,420.399 84.9403,407.732 92,395.5C 92.6708,394.748 93.5041,394.414 94.5,394.5 Z"/></g>
<g><path style="opacity:1" fill="#3fb8d2" d="M 92.5,428.5 C 92.8333,428.5 93.1667,428.5 93.5,428.5C 93.5,429.5 93.5,430.5 93.5,431.5C 92.5655,432.568 92.2322,433.901 92.5,435.5C 91.8333,435.5 91.1667,435.5 90.5,435.5C 88.7411,435.046 86.7411,435.046 84.5,435.5C 83.4949,431.479 83.4949,427.479 84.5,423.5C 85.5,426.167 86.5,428.833 87.5,431.5C 88.1166,425.745 89.1166,420.079 90.5,414.5C 89.0541,412.382 88.3874,410.049 88.5,407.5C 92.3855,406.324 94.0522,407.991 93.5,412.5C 93.0431,416.537 92.3764,420.537 91.5,424.5C 91.5108,426.045 91.8442,427.378 92.5,428.5 Z"/></g>
<g><path style="opacity:1" fill="#dbfafc" d="M 104.5,408.5 C 102.991,413.201 101.158,417.868 99,422.5C 98.2411,424.063 97.0744,425.063 95.5,425.5C 97.7396,419.35 100.74,413.684 104.5,408.5 Z"/></g>
<g><path style="opacity:1" fill="#4ebdc7" d="M 106.5,403.5 C 105.89,404.391 105.557,405.391 105.5,406.5C 105.167,407.167 104.833,407.833 104.5,408.5C 100.74,413.684 97.7396,419.35 95.5,425.5C 95.5,425.833 95.5,426.167 95.5,426.5C 95.5,426.833 95.5,427.167 95.5,427.5C 94.8333,427.833 94.1667,428.167 93.5,428.5C 93.1667,428.5 92.8333,428.5 92.5,428.5C 92.1924,426.076 92.5258,423.743 93.5,421.5C 96.9715,418.225 99.1382,414.225 100,409.5C 101.406,406.591 103.572,404.591 106.5,403.5 Z"/></g>
<g><path style="opacity:1" fill="#f8ecf8" d="M 107.5,435.5 C 109.371,432.939 111.371,430.439 113.5,428C 107.509,427.501 101.509,427.334 95.5,427.5C 95.5,427.167 95.5,426.833 95.5,426.5C 101.093,426.807 106.593,426.473 112,425.5C 114.524,426.676 116.024,428.176 116.5,430C 115.095,431.269 113.429,431.769 111.5,431.5C 111.5,432.833 111.5,434.167 111.5,435.5C 110.167,435.5 108.833,435.5 107.5,435.5 Z"/></g>
<g><path style="opacity:1" fill="#37bdcc" d="M 88.5,407.5 C 88.3874,410.049 89.0541,412.382 90.5,414.5C 89.1166,420.079 88.1166,425.745 87.5,431.5C 86.5,428.833 85.5,426.167 84.5,423.5C 83.4949,427.479 83.4949,431.479 84.5,435.5C 86.7411,435.046 88.7411,435.046 90.5,435.5C 88.9706,439.421 87.6373,443.421 86.5,447.5C 86.5,447.833 86.5,448.167 86.5,448.5C 86.6716,449.492 86.3382,450.158 85.5,450.5C 83.4373,451.711 82.4373,450.877 82.5,448C 84.0417,444.39 84.7084,440.556 84.5,436.5C 83.5,436.5 82.5,436.5 81.5,436.5C 81.4249,433.794 81.0916,431.127 80.5,428.5C 80.783,425.153 82.283,422.487 85,420.5C 85.9445,416.506 86.7779,412.506 87.5,408.5C 87.5,407.833 87.8333,407.5 88.5,407.5 Z"/></g>
<g><path style="opacity:1" fill="#ccb3ce" d="M 95.5,427.5 C 101.509,427.334 107.509,427.501 113.5,428C 111.371,430.439 109.371,432.939 107.5,435.5C 102.5,436.833 97.5,436.833 92.5,435.5C 92.2322,433.901 92.5655,432.568 93.5,431.5C 93.5,430.5 93.5,429.5 93.5,428.5C 94.1667,428.167 94.8333,427.833 95.5,427.5 Z"/></g>
<g><path style="opacity:1" fill="#d6aad6" d="M 93.5,431.5 C 94.5336,430.313 95.867,429.48 97.5,429C 101.486,428.501 105.486,428.334 109.5,428.5C 109.5,429.5 109.5,430.5 109.5,431.5C 104.703,432.703 99.87,433.703 95,434.5C 93.9614,433.756 93.4614,432.756 93.5,431.5 Z"/></g>
<g><path style="opacity:1" fill="#abb1dc" d="M 133.5,374.5 C 136.17,378.542 138.504,382.876 140.5,387.5C 141.325,388.386 142.325,388.719 143.5,388.5C 143.247,392.415 143.913,396.081 145.5,399.5C 147.167,399.5 148.833,399.5 150.5,399.5C 149.622,403.955 151.122,407.289 155,409.5C 159.13,421.901 162.463,434.568 165,447.5C 165.383,448.056 165.883,448.389 166.5,448.5C 166.5,450.5 166.5,452.5 166.5,454.5C 166.5,462.833 166.5,471.167 166.5,479.5C 165.167,479.5 163.833,479.5 162.5,479.5C 162.167,479.5 161.833,479.5 161.5,479.5C 161.72,474.9 161.054,470.567 159.5,466.5C 159.5,465.5 159.5,464.5 159.5,463.5C 159.45,457.513 158.45,451.679 156.5,446C 156.645,445.228 156.978,444.561 157.5,444C 156.304,440.227 154.637,436.727 152.5,433.5C 153.894,431.354 154.56,429.021 154.5,426.5C 153.178,426.67 152.011,426.337 151,425.5C 150.998,428.051 150.164,430.051 148.5,431.5C 146.841,427.53 145.174,423.53 143.5,419.5C 142.241,414.747 140.741,410.08 139,405.5C 134.4,403.305 132.067,399.638 132,394.5C 130.644,393.62 129.144,393.286 127.5,393.5C 125.489,390.139 123.489,386.806 121.5,383.5C 126.518,382.749 128.518,379.749 127.5,374.5C 129.5,374.5 131.5,374.5 133.5,374.5 Z"/></g>
<g><path style="opacity:1" fill="#b0b4d3" d="M 159.5,463.5 C 157.041,452.546 153.374,441.879 148.5,431.5C 150.164,430.051 150.998,428.051 151,425.5C 152.011,426.337 153.178,426.67 154.5,426.5C 154.56,429.021 153.894,431.354 152.5,433.5C 154.637,436.727 156.304,440.227 157.5,444C 156.978,444.561 156.645,445.228 156.5,446C 158.45,451.679 159.45,457.513 159.5,463.5 Z"/></g>
<g><path style="opacity:1" fill="#64b1be" d="M 87.5,408.5 C 86.7779,412.506 85.9445,416.506 85,420.5C 82.283,422.487 80.783,425.153 80.5,428.5C 79.1877,434.406 77.8543,440.406 76.5,446.5C 75.3129,447.534 74.4796,448.867 74,450.5C 69.2112,472.37 69.3779,494.036 74.5,515.5C 74.8333,518.833 75.1667,522.167 75.5,525.5C 69.9292,506.388 67.5959,486.722 68.5,466.5C 70.3243,461.784 71.3243,456.784 71.5,451.5C 74.8679,436.392 80.2012,422.059 87.5,408.5 Z"/></g>
<g><path style="opacity:1" fill="#fbf2fc" d="M 84.5,457.5 C 88.1817,457.665 91.8484,457.499 95.5,457C 96.9292,454.31 97.9292,451.477 98.5,448.5C 94.5,448.5 90.5,448.5 86.5,448.5C 86.5,448.167 86.5,447.833 86.5,447.5C 88.8568,447.663 91.1902,447.497 93.5,447C 94.8741,443.59 95.5408,443.757 95.5,447.5C 97.1439,447.286 98.6439,447.62 100,448.5C 99.5813,451.651 99.248,454.651 99,457.5C 98.6667,457.167 98.3333,456.833 98,456.5C 97,457.833 96,459.167 95,460.5C 93.4126,459.273 92.0793,459.606 91,461.5C 89.0758,459.117 86.9091,457.784 84.5,457.5 Z"/></g>
<g><path style="opacity:1" fill="#cab2d0" d="M 86.5,448.5 C 90.5,448.5 94.5,448.5 98.5,448.5C 97.9292,451.477 96.9292,454.31 95.5,457C 91.8484,457.499 88.1817,457.665 84.5,457.5C 84.448,455.097 84.7814,452.764 85.5,450.5C 86.3382,450.158 86.6716,449.492 86.5,448.5 Z"/></g>
<g><path style="opacity:1" fill="#3db8d0" d="M 80.5,428.5 C 81.0916,431.127 81.4249,433.794 81.5,436.5C 82.5,436.5 83.5,436.5 84.5,436.5C 84.7084,440.556 84.0417,444.39 82.5,448C 82.4373,450.877 83.4373,451.711 85.5,450.5C 84.7814,452.764 84.448,455.097 84.5,457.5C 83.8333,457.5 83.5,457.833 83.5,458.5C 82.2154,461.589 81.5488,464.922 81.5,468.5C 80.7784,468.918 80.2784,469.584 80,470.5C 79.5026,473.146 79.3359,475.813 79.5,478.5C 79.5,478.833 79.5,479.167 79.5,479.5C 78.8333,479.5 78.1667,479.5 77.5,479.5C 78.0542,473.605 77.3876,467.938 75.5,462.5C 76.479,459.917 77.1457,457.251 77.5,454.5C 76.7108,451.674 76.3774,449.007 76.5,446.5C 77.8543,440.406 79.1877,434.406 80.5,428.5 Z"/></g>
<g><path style="opacity:1" fill="#e6eaf7" d="M 166.5,444.5 C 167.961,451.276 168.628,458.276 168.5,465.5C 168.499,470.013 168.166,474.347 167.5,478.5C 167.826,470.316 167.492,462.316 166.5,454.5C 166.5,452.5 166.5,450.5 166.5,448.5C 166.5,447.167 166.5,445.833 166.5,444.5 Z"/></g>
<g><path style="opacity:1" fill="#cbf7fb" d="M 83.5,458.5 C 83.5,462.167 83.5,465.833 83.5,469.5C 82.8333,469.5 82.1667,469.5 81.5,469.5C 81.5,469.167 81.5,468.833 81.5,468.5C 81.5488,464.922 82.2154,461.589 83.5,458.5 Z"/></g>
<g><path style="opacity:1" fill="#3eb9cb" d="M 76.5,446.5 C 76.3774,449.007 76.7108,451.674 77.5,454.5C 77.1457,457.251 76.479,459.917 75.5,462.5C 77.3876,467.938 78.0542,473.605 77.5,479.5C 77.1667,482.833 76.8333,486.167 76.5,489.5C 75.2934,486.35 74.2934,483.016 73.5,479.5C 72.0485,486.605 72.3818,493.605 74.5,500.5C 75.1835,500.137 75.8501,499.804 76.5,499.5C 76.8333,500.167 77.1667,500.833 77.5,501.5C 75.5977,504.337 74.931,507.671 75.5,511.5C 75.7678,513.099 75.4345,514.432 74.5,515.5C 69.3779,494.036 69.2112,472.37 74,450.5C 74.4796,448.867 75.3129,447.534 76.5,446.5 Z"/></g>
<g><path style="opacity:1" fill="#caadcd" d="M 82.5,470.5 C 84.8333,470.5 87.1667,470.5 89.5,470.5C 89.5,472.5 89.5,474.5 89.5,476.5C 87.1667,476.5 84.8333,476.5 82.5,476.5C 82.5,474.5 82.5,472.5 82.5,470.5 Z"/></g>
<g><path style="opacity:1" fill="#e3e7f6" d="M 159.5,466.5 C 161.054,470.567 161.72,474.9 161.5,479.5C 159.946,475.433 159.28,471.1 159.5,466.5 Z"/></g>
<g><path style="opacity:1" fill="#97b9d9" d="M 81.5,468.5 C 81.5,468.833 81.5,469.167 81.5,469.5C 81.5,470.167 81.8333,470.5 82.5,470.5C 82.5,472.5 82.5,474.5 82.5,476.5C 82.5,477.167 82.5,477.833 82.5,478.5C 81.5,478.5 80.5,478.5 79.5,478.5C 79.3359,475.813 79.5026,473.146 80,470.5C 80.2784,469.584 80.7784,468.918 81.5,468.5 Z"/></g>
<g><path style="opacity:1" fill="#cfbdcf" d="M 81.5,469.5 C 82.1667,469.5 82.8333,469.5 83.5,469.5C 86.1667,469.5 88.8333,469.5 91.5,469.5C 91.2962,472.518 90.9629,475.518 90.5,478.5C 87.8333,478.5 85.1667,478.5 82.5,478.5C 82.5,477.833 82.5,477.167 82.5,476.5C 84.8333,476.5 87.1667,476.5 89.5,476.5C 89.5,474.5 89.5,472.5 89.5,470.5C 87.1667,470.5 84.8333,470.5 82.5,470.5C 81.8333,470.5 81.5,470.167 81.5,469.5 Z"/></g>
<g><path style="opacity:1" fill="#b4b7d4" d="M 166.5,454.5 C 167.492,462.316 167.826,470.316 167.5,478.5C 166.828,485.55 165.828,492.55 164.5,499.5C 163.71,498.391 163.21,497.058 163,495.5C 162.501,490.177 162.334,484.844 162.5,479.5C 163.833,479.5 165.167,479.5 166.5,479.5C 166.5,471.167 166.5,462.833 166.5,454.5 Z"/></g>
<g><path style="opacity:1" fill="#c9b9ce" d="M 79.5,491.5 C 82.8333,491.5 86.1667,491.5 89.5,491.5C 89.5,494.5 89.5,497.5 89.5,500.5C 86.1667,500.5 82.8333,500.5 79.5,500.5C 79.5,499.833 79.5,499.167 79.5,498.5C 82.5,498.5 85.5,498.5 88.5,498.5C 88.5,497.5 88.5,496.5 88.5,495.5C 87.5,495.5 86.5,495.5 85.5,495.5C 85.5,494.5 85.5,493.5 85.5,492.5C 84.1667,492.5 82.8333,492.5 81.5,492.5C 81.7148,494.179 81.0481,495.179 79.5,495.5C 79.5,494.167 79.5,492.833 79.5,491.5 Z"/></g>
<g><path style="opacity:1" fill="#37b9d6" d="M 76.5,489.5 C 76.5,492.833 76.5,496.167 76.5,499.5C 75.8501,499.804 75.1835,500.137 74.5,500.5C 72.3818,493.605 72.0485,486.605 73.5,479.5C 74.2934,483.016 75.2934,486.35 76.5,489.5 Z"/></g>
<g><path style="opacity:1" fill="#cdafcf" d="M 79.5,498.5 C 79.5,497.5 79.5,496.5 79.5,495.5C 81.0481,495.179 81.7148,494.179 81.5,492.5C 82.8333,492.5 84.1667,492.5 85.5,492.5C 85.5,493.5 85.5,494.5 85.5,495.5C 86.5,495.5 87.5,495.5 88.5,495.5C 88.5,496.5 88.5,497.5 88.5,498.5C 85.5,498.5 82.5,498.5 79.5,498.5 Z"/></g>
<g><path style="opacity:1" fill="#e5e5ec" d="M 161.5,479.5 C 161.833,479.5 162.167,479.5 162.5,479.5C 162.334,484.844 162.501,490.177 163,495.5C 163.21,497.058 163.71,498.391 164.5,499.5C 164.453,502.568 163.953,505.568 163,508.5C 162.667,508.167 162.333,507.833 162,507.5C 161.5,498.173 161.334,488.839 161.5,479.5 Z"/></g>
<g><path style="opacity:1" fill="#38c0c5" d="M 77.5,501.5 C 78.069,505.329 77.4023,508.663 75.5,511.5C 74.931,507.671 75.5977,504.337 77.5,501.5 Z"/></g>
<g><path style="opacity:1" fill="#c6bacd" d="M 79.5,512.5 C 83.8333,512.5 88.1667,512.5 92.5,512.5C 92.7038,515.518 93.0371,518.518 93.5,521.5C 89.5,521.5 85.5,521.5 81.5,521.5C 80.8333,521.5 80.1667,521.5 79.5,521.5C 79.5,518.5 79.5,515.5 79.5,512.5 Z"/></g>
<g><path style="opacity:1" fill="#ccafcd" d="M 88.5,513.5 C 89.4959,513.414 90.3292,513.748 91,514.5C 91.7429,516.441 91.5762,518.274 90.5,520C 87.2397,520.784 84.0731,520.617 81,519.5C 80.2195,518.056 80.3861,516.723 81.5,515.5C 83.9823,514.933 86.3157,514.266 88.5,513.5 Z"/></g>
<g><path style="opacity:1" fill="#56b5ca" d="M 77.5,479.5 C 78.1667,479.5 78.8333,479.5 79.5,479.5C 79.5,483.5 79.5,487.5 79.5,491.5C 79.5,492.833 79.5,494.167 79.5,495.5C 79.5,496.5 79.5,497.5 79.5,498.5C 79.5,499.167 79.5,499.833 79.5,500.5C 78.1667,504.5 78.1667,508.5 79.5,512.5C 79.5,515.5 79.5,518.5 79.5,521.5C 79.5,523.5 79.5,525.5 79.5,527.5C 79.762,528.978 79.4287,530.311 78.5,531.5C 77.9432,529.668 76.9432,528.335 75.5,527.5C 75.5,526.833 75.5,526.167 75.5,525.5C 75.1667,522.167 74.8333,518.833 74.5,515.5C 75.4345,514.432 75.7678,513.099 75.5,511.5C 77.4023,508.663 78.069,505.329 77.5,501.5C 77.1667,500.833 76.8333,500.167 76.5,499.5C 76.5,496.167 76.5,492.833 76.5,489.5C 76.8333,486.167 77.1667,482.833 77.5,479.5 Z"/></g>
<g><path style="opacity:1" fill="#e0f9fb" d="M 68.5,466.5 C 67.5959,486.722 69.9292,506.388 75.5,525.5C 75.5,526.167 75.5,526.833 75.5,527.5C 76.8511,532.905 78.1845,538.238 79.5,543.5C 78.2502,543.423 77.4169,542.756 77,541.5C 71.8591,525.684 68.5258,509.351 67,492.5C 66.3076,491.975 65.8076,491.308 65.5,490.5C 66.6054,482.384 67.6054,474.384 68.5,466.5 Z"/></g>
<g><path style="opacity:1" fill="#6ab6bb" d="M 75.5,527.5 C 76.9432,528.335 77.9432,529.668 78.5,531.5C 79.4287,530.311 79.762,528.978 79.5,527.5C 81.0076,534.349 82.341,541.349 83.5,548.5C 83.6495,549.552 83.4828,550.552 83,551.5C 82.4216,548.428 81.255,545.761 79.5,543.5C 78.1845,538.238 76.8511,532.905 75.5,527.5 Z"/></g>
<g><path style="opacity:1" fill="#dffcfc" d="M 79.5,521.5 C 80.1667,521.5 80.8333,521.5 81.5,521.5C 82.1729,528.574 83.1729,535.574 84.5,542.5C 84.4954,544.696 84.162,546.696 83.5,548.5C 82.341,541.349 81.0076,534.349 79.5,527.5C 79.5,525.5 79.5,523.5 79.5,521.5 Z"/></g>
</svg>
